# xmcd
#
# Track frame offsets: 
#        150
#        753
#        5497
#        16610
#        29622
#        57367
#        72890
#        146048
#        166674
#        171717
#        179998
#        181028
#        183477
#        196255
#        213196
#        214302
#        216536
#        235335
#        249030
#        251074
#        263489
#        271726
#        279571
#        293473
#        299431
#        308728
#        315933
#        330894
#
# Disc length: 4713 seconds
#
# Revision: 0
# Processed by: cddbd v1.5.2PL0 Copyright (c) Steve Scherf et al.
# Submitted via: ExactAudioCopy v0.95b3
#
DISCID=8f12671c
DTITLE=The Beatles  - AB  Road - Complete Purple Chick Set v1.1 Jan.23
DTITLE=Various Artist - D3  FLAC
DYEAR=1900
DGENRE=
TTITLE0=Get Back 23.34
TTITLE1=Get Back 23.35
TTITLE2=Get Back 23.36
TTITLE3=Get Back 23.37
TTITLE4=Get Back 23.38
TTITLE5=Get Back 23.39
TTITLE6=Oh! Darling 23.40
TTITLE7=Oh! Darling 23.41
TTITLE8=Instrumental 23.42
TTITLE9=Two Of Us 23.43
TTITLE10=Dialogue
TTITLE11=Guitar Instrumental 23.44
TTITLE12=Let It Be 23.45
TTITLE13=Improvisation 23.46
TTITLE14=Mean Mr. Mustard 23.47
TTITLE15=Improvisation 23.48
TTITLE16=Improvisation 23.49
TTITLE17=Let's Twist Again 23.50
TTITLE18=Oh! Darling 23.51
TTITLE19=The Long And Winding Road 23.52
TTITLE20=Love Is The Thing To Me 23.53
TTITLE21=Everything's Alright 23.54
TTITLE22=I Want To Thank You 23.55
TTITLE23=You've Been Acting Strange 23.56
TTITLE24=Use What You Got 23.57
TTITLE25=Together In Love 23.58
TTITLE26=Feedback Improvisation 23.59
TTITLE27=Improvisation 23.60
EXTD=
EXTT0=
EXTT1=
EXTT2=
EXTT3=
EXTT4=
EXTT5=
EXTT6=
EXTT7=
EXTT8=
EXTT9=
EXTT10=
EXTT11=
EXTT12=
EXTT13=
EXTT14=
EXTT15=
EXTT16=
EXTT17=
EXTT18=
EXTT19=
EXTT20=
EXTT21=
EXTT22=
EXTT23=
EXTT24=
EXTT25=
EXTT26=
EXTT27=
PLAYORDER=
